<?xml version="1.0" standalone="no"?>
<!DOCTYPE svg PUBLIC "-//W3C//DTD SVG 20010904//EN"
 "http://www.w3.org/TR/2001/REC-SVG-20010904/DTD/svg10.dtd">
<svg version="1.0" xmlns="http://www.w3.org/2000/svg"
 width="80.000000pt" height="80.000000pt" viewBox="0 0 80.000000 80.000000"
 preserveAspectRatio="xMidYMid meet">
<metadata>
Created by potrace 1.14, written by Peter Selinger 2001-2017
</metadata>
<g transform="translate(0.000000,80.000000) scale(0.100000,-0.100000)"
fill="#000000" stroke="none">
<path d="M0 400 l0 -400 400 0 400 0 0 400 0 400 -400 0 -400 0 0 -400z m556
305 c5 -28 11 -35 30 -35 29 0 33 -34 6 -49 -14 -8 -18 -18 -14 -43 l5 -32
-24 17 c-43 31 -51 31 -71 4 -23 -32 -38 -27 -38 12 0 20 -8 34 -25 45 -35 23
-31 33 13 41 30 5 42 13 57 41 24 46 52 45 61 -1z m-26 -154 c0 -29 -38 -51
-87 -51 l-43 0 16 -25 c9 -14 13 -32 10 -41 -3 -9 3 -27 14 -41 11 -15 18 -29
14 -32 -3 -3 -14 5 -24 19 -19 25 -19 25 -34 5 -13 -17 -15 -18 -16 -3 0 9 5
20 10 23 19 12 9 30 -26 47 -35 16 -35 16 -46 -8 -14 -30 -32 -32 -23 -3 7 21
5 22 -44 17 -38 -4 -62 -13 -88 -35 -60 -48 -76 -77 -81 -142 -6 -78 21 -137
81 -177 37 -26 51 -29 119 -29 81 0 91 -14 16 -22 -156 -18 -271 123 -228 279
22 78 104 139 194 144 27 1 52 8 56 15 5 7 21 14 37 16 138 16 153 20 153 43
0 11 5 20 10 20 6 0 10 -9 10 -19z m-290 -131 c0 -5 -7 -10 -15 -10 -26 0 -84
-61 -97 -101 -6 -23 -15 -36 -20 -31 -17 17 23 93 65 123 41 30 67 37 67 19z
m25 -120 c0 -20 -6 -26 -27 -28 -18 -2 -28 -10 -31 -25 -2 -12 -5 2 -6 31 l-1
53 33 -3 c27 -2 32 -7 32 -28z m93 -61 c15 0 21 -3 15 -6 -18 -7 -16 -23 2
-23 12 0 10 -6 -6 -34 l-20 -34 21 -5 c38 -10 23 -30 -17 -22 -21 4 -40 9 -42
11 -3 2 5 18 17 34 27 36 27 39 2 33 -28 -7 -25 13 3 22 19 6 19 8 5 12 -15 4
-18 14 -16 56 l2 52 3 -47 c4 -44 6 -48 31 -49z m125 64 c8 -16 18 -39 21 -53
6 -21 5 -22 -4 -7 -6 9 -22 17 -35 17 -13 0 -29 -8 -35 -17 -9 -15 -10 -14 -4
7 8 29 33 80 39 80 2 0 11 -12 18 -27z m95 -3 c5 0 13 7 16 16 4 9 9 14 13 11
3 -4 0 -13 -7 -22 -7 -8 -16 -30 -20 -48 -7 -28 -8 -29 -9 -6 -1 14 -8 34 -16
45 -8 10 -14 24 -14 29 0 6 6 2 13 -7 7 -10 18 -18 24 -18z m-88 -100 c24 -24
25 -38 4 -68 -18 -26 -41 -28 -66 -5 -25 22 -23 59 4 77 29 20 34 20 58 -4z
m234 5 c0 -5 -13 -13 -30 -16 -23 -5 -24 -7 -6 -8 12 0 22 -5 22 -9 0 -5 -10
-14 -22 -20 -23 -11 -23 -11 4 -11 28 -1 45 -16 29 -25 -5 -3 -23 -3 -40 0
-29 6 -31 9 -31 50 0 32 4 44 18 47 26 8 57 3 56 -8z m-152 -15 c7 -11 16 -20
20 -20 5 0 8 9 8 20 0 11 5 20 10 20 6 0 10 -20 10 -45 0 -51 -17 -60 -43 -22
l-16 22 0 -22 c-1 -14 -7 -23 -16 -23 -11 0 -15 12 -15 45 0 50 20 61 42 25z"/>
<path d="M504 682 c-4 -15 -17 -25 -35 -29 -31 -6 -38 -20 -14 -29 8 -4 15
-16 15 -28 l0 -21 18 23 c16 21 19 21 40 7 21 -15 22 -15 22 9 0 14 5 26 10
26 6 0 10 5 10 10 0 6 -8 10 -18 10 -11 0 -24 10 -30 23 l-11 22 -7 -23z"/>
<path d="M356 475 c4 -8 8 -15 10 -15 2 0 4 7 4 15 0 8 -4 15 -10 15 -5 0 -7
-7 -4 -15z"/>
<path d="M390 460 c0 -5 5 -10 11 -10 5 0 7 5 4 10 -3 6 -8 10 -11 10 -2 0 -4
-4 -4 -10z"/>
<path d="M210 306 c0 -11 9 -16 26 -16 31 0 28 23 -4 28 -15 2 -22 -2 -22 -12z"/>
<path d="M456 293 c-11 -11 -6 -23 9 -23 8 0 15 4 15 9 0 13 -16 22 -24 14z"/>
<path d="M434 175 c-8 -20 4 -35 26 -35 23 0 32 13 24 34 -8 20 -43 21 -50 1z"/>
</g>
</svg>
